<svg xmlns:dc="http://purl.org/dc/elements/1.1/" xmlns:cc="http://creativecommons.org/ns#" xmlns:rdf="http://www.w3.org/1999/02/22-rdf-syntax-ns#" xmlns:svg="http://www.w3.org/2000/svg" xmlns="http://www.w3.org/2000/svg" xmlns:sodipodi="http://sodipodi.sourceforge.net/DTD/sodipodi-0.dtd" xmlns:inkscape="http://www.inkscape.org/namespaces/inkscape" width="100" height="100" id="svg30967" version="1.1" inkscape:version="0.48.3.1 r9886" sodipodi:docname="touch.svg">
  <defs id="defs30969"/>
  <sodipodi:namedview id="base" pagecolor="#ffffff" bordercolor="#666666" borderopacity="1.0" inkscape:pageopacity="0.0" inkscape:pageshadow="2" inkscape:zoom="5.5" inkscape:cx="32" inkscape:cy="32" inkscape:current-layer="layer1" showgrid="true" inkscape:document-units="px" inkscape:grid-bbox="true" inkscape:window-width="1855" inkscape:window-height="1056" inkscape:window-x="65" inkscape:window-y="24" inkscape:window-maximized="1"/>
  <metadata id="metadata30972">
    <rdf:RDF>
      <cc:Work rdf:about="">
        <dc:format>image/svg+xml</dc:format>
        <dc:type rdf:resource="http://purl.org/dc/dcmitype/StillImage"/>
        <dc:title/>
      </cc:Work>
    </rdf:RDF>
  </metadata>
  <g id="layer1" inkscape:label="Layer 1" inkscape:groupmode="layer" transform="translate(0,36)">
    <path style="font-size:medium;font-style:normal;font-variant:normal;font-weight:normal;font-stretch:normal;text-indent:0;text-align:start;text-decoration:none;line-height:normal;letter-spacing:normal;word-spacing:normal;text-transform:none;direction:ltr;block-progression:tb;writing-mode:lr-tb;text-anchor:start;baseline-shift:baseline;color:#000000;fill:#000000;fill-opacity:1;stroke:none;stroke-width:5;marker:none;visibility:visible;display:inline;overflow:visible;enable-background:accumulate;font-family:Sans;-inkscape-font-specification:Sans" d="m 75.139522,-33.020653 -5.508847,8.158539 C 66.956614,-25.75072 50.487829,-14.638607 45.947523,-6.5411848 43.012779,-1.6023871 42.583688,-1.8114269 45.127125,5.3213368 35.91858,23.748517 27.074966,37.771376 22.98701,45.077193 c -1.610399,2.25004 3.996881,9.840917 9.359457,4.122913 l 3.473571,-5.47045 c 1.77962,0.347506 3.388993,0.779522 4.768748,1.274233 1.82825,0.655619 3.265236,1.428003 4.108948,2.133013 0.806534,0.673951 1.000758,1.2787 1.026364,1.595407 l 0,0.05235 c -0.03546,0.300184 -0.240252,0.723252 -0.970507,1.351033 -0.820297,0.705257 -2.227892,1.499468 -4.056578,2.164441 -3.657527,1.330009 -8.961682,2.213312 -14.83688,2.213312 -5.875098,0 -11.203906,-0.883303 -14.861322,-2.213312 -1.8287644,-0.66497 -3.2362697,-1.459182 -4.0565787,-2.164437 -0.8202634,-0.705188 -0.9705072,-1.155703 -0.9705072,-1.45925 0,-0.30347 0.1502321,-0.778517 0.9705072,-1.483693 0.820309,-0.705268 2.2278143,-1.499468 4.0565787,-2.164439 2.490674,-0.905724 5.756816,-1.604121 9.443243,-1.958464 0.133501,-0.367581 0.314505,-0.691212 0.537619,-0.946074 0.586392,-1.047969 1.280064,-2.250359 2.049229,-3.567833 -5.170522,0.231222 -9.82977,1.087279 -13.4928286,2.41929 -2.1606741,0.785687 -3.9933256,1.705577 -5.4041146,2.9185 -1.4107798,1.212913 -2.4856139,2.872565 -2.4856139,4.782713 0,1.910225 1.0748341,3.545355 2.4856139,4.758268 1.410789,1.212925 3.2434405,2.132813 5.4041146,2.918502 4.3213596,1.571389 10.0239836,2.485613 16.3240596,2.485613 6.300076,0 12.002799,-0.914224 16.32406,-2.485613 2.160685,-0.785689 3.968803,-1.705577 5.379672,-2.918502 1.390559,-1.19544 2.45534,-2.799549 2.485612,-4.674483 l 0,-0.08378 C 49.948819,46.813617 48.857098,44.984417 47.455649,43.813443 46.033878,42.62552 44.205984,41.69542 42.051532,40.922868 40.892868,40.507431 39.633281,40.142532 38.295184,39.826684 l 7.694232,-12.120858 c 2.911285,5.026794 6.416313,1.451879 8.577457,2.956909 2.244368,1.563099 3.969161,3.894997 8.61936,2.970862 3.880999,2.318983 6.795087,4.615489 10.103043,2.227277 C 87.88967,17.678491 88.522011,17.325636 88.747559,13.546207 L 95.886711,0.2593443 C 98.794177,-3.7670853 93.745967,-10.214301 92.245572,-15.582954 l 4.653537,-7.048389 z" id="path3986" inkscape:connector-curvature="0" sodipodi:nodetypes="ccccccccscccssccscccccssssssssccsccccccccccc"/>
  </g>
</svg>